<svg width="24" height="17" viewBox="0 0 24 17" fill="none" xmlns="http://www.w3.org/2000/svg">
<path d="M7.09115 0.700012H8.69923C8.92727 0.700082 9.14679 0.78671 9.31342 0.942391C9.48005 1.09807 9.58137 1.3112 9.59691 1.53871C9.61245 1.76622 9.54106 1.99115 9.39715 2.16804C9.25324 2.34494 9.04755 2.46062 8.82164 2.4917L8.70043 2.5001H7.09235C6.88366 2.49969 6.68131 2.5718 6.51993 2.70411L6.42992 2.79172L3.941 5.49905H8.1004C8.7657 5.49894 9.40761 5.74445 9.90303 6.18849C10.3984 6.63253 10.7125 7.24384 10.7849 7.90517H13.2175C13.2902 7.24426 13.6042 6.63341 14.0993 6.18964C14.5944 5.74588 15.2359 5.5004 15.9008 5.50025L20.0734 5.49905L17.5737 2.78932C17.4324 2.63633 17.2424 2.53708 17.0361 2.5085L16.9112 2.5001H15.2972C15.0691 2.50003 14.8496 2.4134 14.683 2.25772C14.5164 2.10204 14.415 1.88891 14.3995 1.6614C14.3839 1.43389 14.4553 1.20897 14.5992 1.03207C14.7432 0.855173 14.9488 0.739496 15.1748 0.708413L15.2972 0.700012H16.9124C17.5879 0.700322 18.2388 0.953807 18.7365 1.41045L18.8961 1.56886L23.2668 6.30549C23.3268 6.3715 23.376 6.4435 23.4132 6.5191C23.7804 6.97993 24 7.56435 24 8.19919V12.3958C24 13.4302 23.5891 14.4222 22.8577 15.1537C22.1262 15.8851 21.1342 16.296 20.0998 16.296H17.1009C16.0665 16.296 15.0744 15.8851 14.343 15.1537C13.6116 14.4222 13.2007 13.4302 13.2007 12.3958L13.1995 9.70526H10.7981V12.3958C10.7981 13.4302 10.3872 14.4222 9.6558 15.1537C8.92437 15.8851 7.93234 16.296 6.89794 16.296H3.9002C2.8658 16.296 1.87377 15.8851 1.14234 15.1537C0.410912 14.4222 0 13.4302 0 12.3958V8.20039C0 7.52595 0.247212 6.90912 0.655233 6.4363L0.700835 6.3703L0.753638 6.30789L5.10265 1.57366C5.56105 1.07465 6.19031 0.766226 6.86554 0.709613L7.09115 0.700012H8.69923H7.09115ZM8.0992 7.30034H2.70013C2.46143 7.30034 2.2325 7.39517 2.06371 7.56396C1.89492 7.73275 1.80009 7.96168 1.80009 8.20039V12.3958C1.80009 13.5563 2.74094 14.4959 3.9002 14.4959H6.89915C7.45613 14.4959 7.9903 14.2746 8.38414 13.8808C8.77799 13.4869 8.99925 12.9528 8.99925 12.3958V8.20039C8.99925 7.96168 8.90442 7.73275 8.73563 7.56396C8.56684 7.39517 8.33791 7.30034 8.0992 7.30034ZM21.2999 7.30034H15.9008C15.6621 7.30034 15.4332 7.39517 15.2644 7.56396C15.0956 7.73275 15.0008 7.96168 15.0008 8.20039V12.3958C15.0008 13.5563 15.9416 14.4959 17.1009 14.4959H20.0998C20.6568 14.4959 21.191 14.2746 21.5848 13.8808C21.9786 13.4869 22.1999 12.9528 22.1999 12.3958V8.20039C22.1999 7.96168 22.1051 7.73275 21.9363 7.56396C21.7675 7.39517 21.5386 7.30034 21.2999 7.30034Z" fill="#222222"/>
</svg>
