<svg width="16" height="16" viewBox="0 0 16 16" fill="none" xmlns="http://www.w3.org/2000/svg">
<g clip-path="url(#clip0)">
<path d="M3.14732 8.58696C2.73865 9.39029 3.20265 9.77429 4.26132 10.4303C5.16132 10.9863 6.40465 11.1896 7.20332 11.271C6.87598 11.5856 8.37598 10.143 4.05598 14.2983C3.13998 15.1763 4.61465 16.585 5.52998 15.7256L8.00798 13.3356C8.95665 14.2483 9.86598 15.123 10.486 15.729C11.402 16.5916 12.876 15.195 11.97 14.3016C11.902 14.237 8.61198 11.081 8.81265 11.2743C9.62132 11.193 10.846 10.9776 11.7353 10.4336L11.7347 10.433C12.7933 9.77363 13.2573 9.39029 12.8547 8.58696C12.6113 8.13096 11.9553 7.74963 11.082 8.40896C11.082 8.40896 9.90265 9.31229 8.00065 9.31229C6.09798 9.31229 4.91932 8.40896 4.91932 8.40896C4.04665 7.74629 3.38798 8.13096 3.14732 8.58696Z" fill="#999999"/>
<path d="M7.99929 8.09467C10.318 8.09467 12.2113 6.28267 12.2113 4.052C12.2113 1.812 10.318 0 7.99929 0C5.67995 0 3.78662 1.812 3.78662 4.052C3.78662 6.28267 5.67995 8.09467 7.99929 8.09467ZM7.99929 2.05267C9.13862 2.05267 10.068 2.94667 10.068 4.052C10.068 5.148 9.13862 6.042 7.99929 6.042C6.85995 6.042 5.93062 5.148 5.93062 4.052C5.92995 2.946 6.85929 2.05267 7.99929 2.05267Z" fill="#999999"/>
</g>
<defs>
<clipPath id="clip0">
<rect width="16" height="16" fill="white"/>
</clipPath>
</defs>
</svg>
