<svg width="0" height="0" class="hidden">
  <symbol fill="none" xmlns="http://www.w3.org/2000/svg" viewBox="0 0 16 16" id="odnoklassniki">
    <g clip-path="url(#clip0)" fill="#999">
      <path d="M3.147 8.587c-.408.803.056 1.187 1.114 1.843.9.556 2.144.76 2.942.841l-3.147 3.027c-.916.878.559 2.287 1.474 1.428l2.478-2.39c.949.912 1.858 1.787 2.478 2.393.916.863 2.39-.534 1.484-1.427l-3.157-3.028c.808-.081 2.033-.296 2.922-.84v-.001c1.058-.66 1.522-1.043 1.12-1.846-.244-.456-.9-.837-1.773-.178 0 0-1.18.903-3.081.903-1.903 0-3.082-.903-3.082-.903-.872-.663-1.531-.278-1.772.178z"></path>
      <path d="M8 8.095c2.318 0 4.211-1.812 4.211-4.043C12.211 1.812 10.318 0 8 0S3.787 1.812 3.787 4.052c0 2.23 1.893 4.043 4.212 4.043zm0-6.042c1.139 0 2.068.894 2.068 1.999 0 1.096-.93 1.99-2.069 1.99-1.139 0-2.068-.894-2.068-1.99-.001-1.106.928-2 2.068-2z"></path>
    </g>
    <defs>
      <clipPath id="clip0">
        <path fill="#fff" d="M0 0h16v16H0z"></path>
      </clipPath>
    </defs>
  </symbol>
  <symbol fill="none" xmlns="http://www.w3.org/2000/svg" viewBox="0 0 18 18" id="vk">
    <g clip-path="url(#clip0)">
      <path d="M14.936 9.771c-.29-.367-.207-.53 0-.86.004-.003 2.406-3.323 2.654-4.448l.001-.001c.123-.41 0-.712-.595-.712H15.03c-.502 0-.732.259-.856.548 0 0-1.002 2.399-2.42 3.954-.457.449-.669.593-.918.593-.124 0-.315-.144-.315-.554V4.46c0-.491-.14-.71-.555-.71H6.871c-.315 0-.501.229-.501.442 0 .467.708.574.782 1.887v2.847c0 .624-.113.74-.365.74-.668 0-2.292-2.41-3.254-5.165-.195-.535-.385-.751-.89-.751H.676c-.563 0-.676.26-.676.549 0 .512.669 3.055 3.111 6.415 1.627 2.293 3.92 3.536 6.005 3.536 1.253 0 1.406-.276 1.406-.75 0-2.192-.114-2.4.514-2.4.291 0 .792.145 1.962 1.251 1.338 1.312 1.557 1.9 2.306 1.9h1.968c.56 0 .845-.277.681-.821-.374-1.146-2.903-3.501-3.017-3.659z" fill="#999"></path>
    </g>
    <defs>
      <clipPath id="clip0">
        <path fill="#fff" d="M0 0h18v18H0z"></path>
      </clipPath>
    </defs>
  </symbol>
  <symbol fill="none" xmlns="http://www.w3.org/2000/svg" viewBox="0 0 17 16" id="youtube">
    <g clip-path="url(#clip0)">
      <path d="M16.277 4.003a2.082 2.082 0 00-1.465-1.465c-1.3-.356-6.502-.356-6.502-.356s-5.202 0-6.503.342A2.124 2.124 0 00.342 4.003C0 5.303 0 8 0 8s0 2.71.342 3.997a2.082 2.082 0 001.465 1.465c1.314.356 6.503.356 6.503.356s5.202 0 6.502-.342a2.082 2.082 0 001.465-1.465c.342-1.3.342-3.997.342-3.997s.014-2.71-.342-4.011zm-9.624 6.489V5.508L10.98 8l-4.326 2.492z" fill="#999"></path>
    </g>
    <defs>
      <clipPath id="clip0">
        <path fill="#fff" d="M0 0h16.727v16H0z"></path>
      </clipPath>
    </defs>
  </symbol>
  <symbol fill="none" xmlns="http://www.w3.org/2000/svg" viewBox="0 0 14 14" id="instagram">
    <path d="M11.95 0h-9.9C.92 0 0 .92 0 2.05v9.9C0 13.08.92 14 2.05 14h9.9c1.13 0 2.05-.92 2.05-2.05v-9.9C14 .92 13.08 0 11.95 0zM7.026 10.664a3.696 3.696 0 01-3.691-3.691A3.696 3.696 0 017.027 3.28a3.696 3.696 0 013.692 3.692 3.696 3.696 0 01-3.692 3.691zm4.102-6.562a1.231 1.231 0 11.002-2.46 1.231 1.231 0 01-.002 2.459z" fill="#999"></path>
    <path d="M11.129 2.46a.41.41 0 100 .822.41.41 0 000-.821zM7.027 4.102a2.875 2.875 0 00-2.87 2.87 2.875 2.875 0 002.87 2.872 2.875 2.875 0 002.871-2.871 2.875 2.875 0 00-2.87-2.871z" fill="#999"></path>
  </symbol>
</svg>