<svg width="18" height="18" viewBox="0 0 18 18" fill="none" xmlns="http://www.w3.org/2000/svg">
<g clip-path="url(#clip0)">
<path d="M14.9363 9.77114C14.6453 9.40364 14.7285 9.24014 14.9363 8.91164C14.94 8.90789 17.3422 5.58839 17.5897 4.46264L17.5912 4.46189C17.7143 4.05164 17.5913 3.75014 16.9965 3.75014H15.0285C14.5275 3.75014 14.2965 4.00889 14.1727 4.29839C14.1727 4.29839 13.1707 6.69689 11.7533 8.25164C11.2957 8.70089 11.0843 8.84489 10.8345 8.84489C10.7115 8.84489 10.5203 8.70089 10.5203 8.29064V4.46189C10.5203 3.96989 10.38 3.75014 9.96525 3.75014H6.87075C6.5565 3.75014 6.36975 3.97964 6.36975 4.19339C6.36975 4.65989 7.0785 4.76714 7.152 6.07964V8.92739C7.152 9.55139 7.03875 9.66614 6.7875 9.66614C6.1185 9.66614 4.49475 7.25789 3.5325 4.50164C3.33825 3.96689 3.1485 3.75089 2.64375 3.75089H0.675C0.11325 3.75089 0 4.00964 0 4.29914C0 4.81064 0.669 7.35389 3.111 10.7139C4.7385 13.0074 7.0305 14.2501 9.1155 14.2501C10.3688 14.2501 10.5218 13.9741 10.5218 13.4994C10.5218 11.3079 10.4085 11.1009 11.0363 11.1009C11.3273 11.1009 11.8282 11.2449 12.9982 12.3511C14.3355 13.6629 14.5553 14.2501 15.3038 14.2501H17.2717C17.8328 14.2501 18.117 13.9741 17.9535 13.4296C17.5793 12.2844 15.0503 9.92864 14.9363 9.77114Z" fill="#999999"/>
</g>
<defs>
<clipPath id="clip0">
<rect width="18" height="18" fill="white"/>
</clipPath>
</defs>
</svg>
