<svg width="17" height="16" viewBox="0 0 17 16" fill="none" xmlns="http://www.w3.org/2000/svg">
<g clip-path="url(#clip0)">
<path d="M16.2772 4.00264C16.0856 3.29064 15.5243 2.72939 14.8124 2.53767C13.5119 2.18182 8.3096 2.18182 8.3096 2.18182C8.3096 2.18182 3.10755 2.18182 1.80702 2.52418C1.10882 2.71569 0.533767 3.29074 0.342252 4.00264C0 5.30307 0 8.00001 0 8.00001C0 8.00001 0 10.7105 0.342252 11.9974C0.53397 12.7093 1.09512 13.2705 1.80712 13.4622C3.12125 13.8182 8.3098 13.8182 8.3098 13.8182C8.3098 13.8182 13.5119 13.8182 14.8124 13.4758C15.5244 13.2842 16.0856 12.723 16.2774 12.0111C16.6195 10.7105 16.6195 8.0137 16.6195 8.0137C16.6195 8.0137 16.6332 5.30307 16.2772 4.00264ZM6.65332 10.4915V5.50848L10.9792 8.00001L6.65332 10.4915Z" fill="#999999"/>
</g>
<defs>
<clipPath id="clip0">
<rect width="16.7273" height="16" fill="white"/>
</clipPath>
</defs>
</svg>
