<svg width="19" height="16" viewBox="0 0 19 16" fill="none" xmlns="http://www.w3.org/2000/svg">
<path d="M17.1971 7.89839L17.1969 7.89861L9.53607 15.4392L1.66818 7.71829C1.6463 7.69679 1.62568 7.6744 1.59728 7.64339L1.59506 7.64097C1.57081 7.61448 1.54033 7.5812 1.50577 7.54674C-0.0950037 5.77968 0.0621073 3.08733 1.84828 1.50744L1.84828 1.50744L1.84902 1.50679C3.58836 -0.0392898 6.35508 0.19086 8.04664 1.85332L8.0481 1.85473L9.25758 3.03138L9.53915 3.30531L9.81812 3.02874L11.2096 1.6492C11.2098 1.64903 11.21 1.64886 11.2101 1.64868C11.2319 1.62736 11.2546 1.60718 11.2859 1.57948L11.2883 1.5773C11.3153 1.55346 11.3491 1.52353 11.3842 1.48957C13.1876 -0.0883778 15.9387 0.0680944 17.5487 1.82585C19.1068 3.5309 18.8852 6.23943 17.1971 7.89839Z" stroke="#9EABBD" stroke-width="0.8" stroke-miterlimit="3" stroke-linecap="round"/>
</svg>
